HIERARCHY
ROOT Hips
{
	OFFSET -0.179506 -22.333345 2.821913
	CHANNELS 6 Xposition Yposition Zposition Zrotation Yrotation Xrotation 
	JOINT LeftUpLeg
	{
		OFFSET 6.951974 -9.140623 -0.681533
		CHANNELS 3 Zrotation Yrotation Xrotation
		JOINT LeftLeg
		{
			OFFSET 3.427654 -37.519855 -0.449580
			CHANNELS 3 Zrotation Yrotation Xrotation
			JOINT LeftFoot
			{
				OFFSET -1.359570 -39.796059 -4.369333
				CHANNELS 3 Zrotation Yrotation Xrotation
				JOINT LeftToe
				{
					OFFSET 2.635814 -5.579078 11.928840
					CHANNELS 3 Zrotation Yrotation Xrotation
					End Site
					{
						OFFSET 0.000000 0.000000 0.000000
					}
				}
			}
		}
	}
	JOINT RightUpLeg
	{
		OFFSET -6.767048 -9.052170 -0.431982
		CHANNELS 3 Zrotation Yrotation Xrotation
		JOINT RightLeg
		{
			OFFSET -3.829005 -38.256897 -0.885003
			CHANNELS 3 Zrotation Yrotation Xrotation
			JOINT RightFoot
			{
				OFFSET 1.577377 -39.841461 -4.231180
				CHANNELS 3 Zrotation Yrotation Xrotation
				JOINT RightToe
				{
					OFFSET -2.537174 -4.814398 12.334795
					CHANNELS 3 Zrotation Yrotation Xrotation
					End Site
					{
						OFFSET 0.000000 0.000000 0.000000
					}
				}
			}
		}
	}
	JOINT Spine
	{
		OFFSET -0.253288 10.896323 -2.669631
		CHANNELS 3 Zrotation Yrotation Xrotation
		JOINT Spine1
		{
			OFFSET 0.548704 13.518043 0.109247
			CHANNELS 3 Zrotation Yrotation Xrotation
			JOINT Spine2
			{
				OFFSET 0.145701 5.292222 2.542457
				CHANNELS 3 Zrotation Yrotation Xrotation
				JOINT Neck
				{
					OFFSET -0.277840 21.387037 -4.285703
					CHANNELS 3 Zrotation Yrotation Xrotation
					JOINT Head
					{
						OFFSET 0.515184 6.496960 5.134897
						CHANNELS 3 Zrotation Yrotation Xrotation
						End Site
						{
							OFFSET 0.000000 0.000000 0.000000
						}
					}
				}
				JOINT LeftShoulder
				{
					OFFSET 7.884473 12.174932 -3.408961
					CHANNELS 3 Zrotation Yrotation Xrotation
					JOINT LeftArm
					{
						OFFSET 9.097692 3.046888 -0.886815
						CHANNELS 3 Zrotation Yrotation Xrotation
						JOINT LeftForeArm
						{
							OFFSET 25.961220 -1.277207 -2.745643
							CHANNELS 3 Zrotation Yrotation Xrotation
							JOINT LeftHand
							{
								OFFSET 24.923361 0.898606 -0.117091
								CHANNELS 3 Zrotation Yrotation Xrotation
								End Site
								{
									OFFSET 0.000000 0.000000 0.000000
								}
							}
						}
					}
				}
				JOINT RightShoulder
				{
					OFFSET -8.175920 11.883285 -3.861528
					CHANNELS 3 Zrotation Yrotation Xrotation
					JOINT RightArm
					{
						OFFSET -9.601238 3.255117 -0.914307
						CHANNELS 3 Zrotation Yrotation Xrotation
						JOINT RightForeArm
						{
							OFFSET -25.374195 -1.332924 -2.140099
							CHANNELS 3 Zrotation Yrotation Xrotation
							JOINT RightHand
							{
								OFFSET -25.529810 0.777228 -0.555919
								CHANNELS 3 Zrotation Yrotation Xrotation
								End Site
								{
									OFFSET 0.000000 0.000000 0.000000
								}
							}
						}
					}
				}
			}
		}
	}
}
MOTION
Frames: 10
Frame Time: 0.033333
73.354355 -103.080276 94.492943 -131.122195 1.378831 84.701546 -0.151413 0.012103 5.694724 -2.173809 -7.317331 2.472879 2.469174 8.719405 -13.235009 nan nan nan 1.124654 -2.183440 6.731637 1.609437 -1.468520 -0.786792 0.379756 -5.467623 -9.626367 nan nan nan -0.555347 2.364267 8.363629 2.708334 -4.461815 9.152945 3.283349 -1.835386 -4.091214 -4.474793 0.922773 2.850264 4.309597 -1.348355 -6.916950 -28.523972 -3.638633 4.451070 -59.417186 -5.813932 11.281453 10.606366 -21.713464 3.272315 -12.409239 -15.054997 0.624943 30.144213 8.955615 4.359532 53.485326 3.144276 10.950014 -12.577343 20.651363 -5.856134 11.823710 15.198203 -4.989280 
73.380753 -103.090393 94.482643 -131.079257 1.376602 84.699736 -0.147992 -0.043379 5.645737 -2.183049 -7.376277 2.546568 2.390536 8.778644 -13.317662 nan nan nan 1.166344 -2.127509 6.678784 1.572924 -1.492047 -0.713341 0.550959 -5.565964 -9.690169 nan nan nan -0.538815 2.290673 8.356301 2.632037 -4.456379 9.136311 3.271176 -1.821287 -3.977531 -4.398657 0.938063 2.617398 4.264377 -1.301752 -6.722466 -28.388625 -3.641579 4.481480 -59.462391 -5.897595 11.269597 10.619088 -21.809815 3.425722 -12.239936 -15.161302 0.519393 30.024092 8.975447 4.335265 53.744266 3.136611 10.996277 -12.688223 20.655598 -5.905201 11.569414 15.300410 -5.349525 
73.423508 -103.110756 94.471664 -131.058130 1.410517 84.750749 -0.094289 -0.086543 5.528659 -2.202074 -7.413320 2.623449 2.329889 8.784895 -13.290527 nan nan nan 1.260742 -2.110969 6.583785 1.511659 -1.491101 -0.688379 0.654847 -5.644762 -9.689918 nan nan nan -0.542938 2.231652 8.345740 2.626400 -4.463094 9.087757 3.296862 -1.772877 -3.934201 -4.392511 0.920036 2.515169 4.222457 -1.277983 -6.671024 -28.264046 -3.634015 4.440390 -59.553870 -5.935843 11.310288 10.623091 -21.807978 3.435535 -12.181610 -15.171925 0.437958 29.914523 8.989615 4.281620 53.885094 3.104307 11.073834 -12.774508 20.714307 -5.910986 11.533119 15.365985 -5.501530 
73.476402 -103.128998 94.462845 -131.062963 1.443888 84.802223 -0.000413 -0.127804 5.409529 -2.277980 -7.410610 2.673426 2.291937 8.761557 -13.264684 nan nan nan 1.332644 -2.112703 6.481199 1.488750 -1.473720 -0.642561 0.702497 -5.699961 -9.714249 nan nan nan -0.561632 2.198546 8.397398 2.631281 -4.453457 8.960262 3.329040 -1.744785 -3.876164 -4.392899 0.937427 2.385228 4.143009 -1.245231 -6.621574 -28.105724 -3.575626 4.406036 -59.690608 -5.945765 11.314713 10.595217 -21.870820 3.511270 -12.186979 -15.041505 0.307266 29.805231 8.923037 4.205965 53.980342 3.169092 11.111240 -12.778873 20.828650 -5.767586 11.732111 15.272579 -5.493208 
73.492279 -103.122452 94.457909 -131.063211 1.452307 84.793831 0.020253 -0.143298 5.401461 -2.282429 -7.417186 2.698641 2.287545 8.753237 -13.294192 nan nan nan 1.346518 -2.148531 6.468407 1.513919 -1.513755 -0.592102 0.699105 -5.728403 -9.692408 nan nan nan -0.553981 2.178657 8.417140 2.614499 -4.446821 8.942537 3.311692 -1.742145 -3.859081 -4.351587 0.971189 2.295293 4.143895 -1.210413 -6.596378 -28.084280 -3.531547 4.407729 -59.664882 -5.937607 11.274756 10.570668 -21.958976 3.527332 -12.172436 -14.994240 0.287799 29.770857 8.871242 4.162216 54.081149 3.183803 11.089096 -12.811031 20.857918 -5.788520 11.779125 15.262623 -5.518031 
73.470200 -103.135498 94.269066 -131.382190 1.402288 84.418928 -0.031989 -0.153750 5.958118 -2.185059 -7.197152 2.406402 2.488132 8.772585 -13.527165 nan nan nan 1.237186 -1.988446 6.933186 1.625671 -1.568055 -0.584380 -0.265290 -5.356942 -9.840814 nan nan nan -1.243167 3.425943 7.129209 3.336329 -3.994879 14.877184 3.928061 -2.342499 -7.207603 -3.876046 1.280854 -0.546610 3.609528 -2.052553 -5.977265 -27.122755 -3.405330 4.076395 -61.512866 -7.318826 11.578091 11.306601 -21.493577 3.956200 -12.940058 -15.272557 1.132446 28.533817 8.097713 3.248399 54.658260 3.801406 11.075188 -12.751976 21.281494 -5.821014 12.237983 15.929644 -5.344789 
73.462227 -103.175423 94.232590 -131.392970 1.411822 84.471328 -0.050104 -0.195783 5.882450 -2.132019 -7.111430 2.326078 2.423384 8.791770 -13.412467 nan nan nan 1.263420 -1.971178 6.922550 1.617266 -1.574664 -0.697698 -0.203750 -5.366278 -9.796291 nan nan nan -1.150323 3.372979 6.988707 3.252509 -3.947404 14.763127 3.894956 -2.340911 -6.999707 -3.884718 1.363336 -0.847906 3.600236 -2.019686 -5.772577 -26.935076 -3.506236 4.182886 -61.771375 -7.543792 11.510601 11.430246 -21.370239 4.026000 -12.932498 -15.284382 1.020761 28.470377 8.124536 3.347496 54.803310 4.033590 10.981298 -12.833794 21.029714 -5.836288 12.088664 15.798337 -5.333758 
73.478096 -103.219795 94.210770 -131.380821 1.424774 84.513186 -0.021963 -0.233349 5.782136 -2.154670 -7.125911 2.310029 2.360318 8.771910 -13.357899 nan nan nan 1.296032 -1.985655 6.898017 1.620302 -1.563293 -0.850778 -0.181639 -5.391790 -9.761487 nan nan nan -1.084394 3.323112 6.907934 3.161776 -3.977569 14.646001 3.866644 -2.299587 -6.812733 -3.883830 1.419215 -1.086827 3.682545 -1.982085 -5.626402 -26.754263 -3.618530 4.237225 -61.984752 -7.700782 11.497767 11.565024 -21.264131 4.006736 -12.938635 -15.234509 0.889955 28.529190 8.229272 3.454490 54.778673 4.222377 10.910061 -12.810940 20.847528 -5.866531 12.112754 15.714455 -5.298521 
73.487442 -103.251869 94.196732 -131.366653 1.411462 84.511006 -0.038441 -0.244957 5.744530 -2.153276 -7.110758 2.298988 2.300682 8.785085 -13.394449 nan nan nan 1.281233 -1.987898 6.924360 1.666947 -1.567504 -0.888694 -0.141255 -5.426680 -9.827509 nan nan nan -1.020080 3.291378 6.900822 3.072039 -3.984123 14.492310 3.854022 -2.341327 -6.631864 -3.907788 1.476844 -1.274851 3.691279 -1.945433 -5.517598 -26.676827 -3.648844 4.271771 -62.046996 -7.806352 11.423050 11.585620 -21.242588 4.093399 -12.855074 -15.312523 0.689741 28.631640 8.274848 3.498715 54.731656 4.376184 10.872284 -12.832547 20.705084 -5.918627 12.037397 15.704130 -5.376973 
73.503288 -103.275970 94.184265 -131.356878 1.420813 84.490125 -0.023204 -0.256380 5.744107 -2.156851 -7.139115 2.295709 2.286588 8.773723 -13.399487 nan nan nan 1.304009 -2.020974 6.957795 1.669956 -1.552832 -0.855846 -0.159267 -5.474536 -9.870046 nan nan nan -0.988010 3.241094 6.980682 3.031985 -3.963802 14.292586 3.865369 -2.365571 -6.498151 -3.949044 1.466554 -1.421184 3.683157 -1.924601 -5.428644 -26.592064 -3.620018 4.262332 -62.145913 -7.860998 11.439452 11.558338 -21.243548 4.236128 -12.692898 -15.345740 0.564126 28.617979 8.337593 3.491780 54.723257 4.482835 10.946297 -12.764978 20.470752 -5.914822 11.784768 15.744477 -5.584586 
